<?xml version="1.0" encoding="iso-8859-1"?>
<!-- Generator: Adobe Illustrator 24.1.2, SVG Export Plug-In . SVG Version: 6.00 Build 0)  -->
<svg version="1.1" baseProfile="basic" id="Layer_1"
	 xmlns="http://www.w3.org/2000/svg" xmlns:xlink="http://www.w3.org/1999/xlink" x="0px" y="0px" viewBox="0 0 48 48"
	 xml:space="preserve">
<linearGradient id="SVGID_1_" gradientUnits="userSpaceOnUse" x1="14.1007" y1="6.854" x2="34.491" y2="42.1709">
	<stop  offset="0" style="stop-color:#EA504D"/>
	<stop  offset="0.736" style="stop-color:#E83E3B"/>
	<stop  offset="1" style="stop-color:#E73634"/>
</linearGradient>
<path style="fill:url(#SVGID_1_);" d="M44,24c0,11.045-8.955,20-20,20S4,35.045,4,24S12.955,4,24,4S44,12.955,44,24z"/>
<path style="fill:#FFFFFF;" d="M24,37c-7.168,0-13-5.832-13-13s5.832-13,13-13s13,5.832,13,13S31.168,37,24,37z M24,12
	c-6.617,0-12,5.383-12,12s5.383,12,12,12s12-5.383,12-12S30.617,12,24,12z"/>
<polygon style="fill:#FFFFFF;" points="20,18 20,30 30,24 "/>
</svg>
